<?xml version="1.0" encoding="utf-8"?>
<!-- Generator: Adobe Illustrator 20.0.0, SVG Export Plug-In . SVG Version: 6.00 Build 0)  -->
<svg version="1.1" id="Layer_1" xmlns="http://www.w3.org/2000/svg" xmlns:xlink="http://www.w3.org/1999/xlink" x="0px" y="0px"
	 viewBox="0 0 50 50" enable-background="new 0 0 50 50" xml:space="preserve">
<path d="M28.5,40.7c8.4,5.4,12.7,4.6,16.2,1.2c3.5-3.6,5.3-8.5,3-13.5c1.5-5.3-1.4-11.1-7.9-16.2c-0.2-4.4-0.8-8.7-1.1-10
	c-0.4-1.7-2.6,2.9-4.9,8.4c-1.1-0.2-2.2-0.3-3.4-0.3c-6.4,0-12.2,2.4-16.4,6.3c-3.8-1.5-9.2-3-11.4-3c-2.2,0.1,2.5,5.9,6.2,10.1
	c-2,18.9,13.3,25.5,24,24.2c2-0.2,4.1-0.8,6.1-1.8C35.2,45.7,31.2,43.8,28.5,40.7z M44.8,31.9l-0.7,1.9l-0.7,1.9l-2-0.6l-2-0.6
	l2.7-1.3L44.8,31.9z M25.8,28.5c0-1.5,1.2-2.7,2.7-2.7c1.5,0,2.7,1.2,2.7,2.7s-0.5-1-2-1C27.7,27.5,25.8,30,25.8,28.5z"/>
<path fill="#909090" d="M38.3,25.8c-0.8-0.6,1.7-5.6,3.9-1c0.7,1.5-1.4-0.4-2.1,0S38.7,26.1,38.3,25.8z"/>
</svg>
